<?xml version="1.0" encoding="UTF-8"?>
<svg xmlns="http://www.w3.org/2000/svg" version="1.1" xmlns:xlink="http://www.w3.org/1999/xlink" viewBox="0 0 600 900">
  <!-- Generator: Adobe Illustrator 29.0.1, SVG Export Plug-In . SVG Version: 2.1.0 Build 192)  -->
  <defs>
    <style>
      .st0 {
        fill: url(#linear-gradient2);
      }

      .st1 {
        mix-blend-mode: hard-light;
        opacity: .5;
      }

      .st1, .st2, .st3 {
        fill: #fff;
      }

      .st4 {
        fill: url(#Degradado_sin_nombre_477);
      }

      .st4, .st5, .st6, .st7, .st8, .st9 {
        mix-blend-mode: multiply;
      }

      .st5 {
        fill: url(#linear-gradient1);
      }

      .st10 {
        fill: url(#Degradado_sin_nombre_4261);
      }

      .st11 {
        mask: url(#mask);
      }

      .st12 {
        fill: #95cff0;
      }

      .st13 {
        fill: url(#Degradado_sin_nombre_449);
      }

      .st6 {
        fill: #eb0000;
      }

      .st14 {
        fill: url(#Degradado_sin_nombre_4201);
      }

      .st15 {
        fill: url(#Degradado_sin_nombre_426);
      }

      .st16 {
        fill: url(#Degradado_sin_nombre_420);
      }

      .st7 {
        fill: url(#Degradado_sin_nombre_442);
      }

      .st17 {
        isolation: isolate;
      }

      .st18 {
        font-family: Castellar, Castellar;
        font-size: 65.32px;
      }

      .st3 {
        stroke: #231f20;
        stroke-miterlimit: 10;
        stroke-width: .25px;
      }

      .st19 {
        fill: url(#linear-gradient3);
      }

      .st8 {
        fill: url(#Nueva_muestra_de_degradado_8);
      }

      .st20 {
        display: none;
      }

      .st21 {
        fill: #ed1c24;
      }

      .st22 {
        fill: #231f20;
        font-family: Poppins-ExtraLight, Poppins;
        font-size: 32.27px;
        font-weight: 200;
        letter-spacing: .41em;
      }

      .st9 {
        fill: url(#Degradado_sin_nombre_478);
      }

      .st23 {
        fill: url(#linear-gradient);
      }
    </style>
    <linearGradient id="Degradado_sin_nombre_420" data-name="Degradado sin nombre 420" x1="1800.18" y1="-109.97" x2="1800.35" y2="-10.3" gradientTransform="translate(5530.83) rotate(-180) scale(1 -1)" gradientUnits="userSpaceOnUse">
      <stop offset="0" stop-color="#ffa700"/>
      <stop offset="1" stop-color="#ff1a19"/>
    </linearGradient>
    <linearGradient id="Degradado_sin_nombre_478" data-name="Degradado sin nombre 478" x1="3731.31" y1="109.62" x2="3835" y2="274.29" gradientUnits="userSpaceOnUse">
      <stop offset=".02" stop-color="#3f00b4"/>
      <stop offset=".05" stop-color="#561ebd"/>
      <stop offset=".1" stop-color="#7d52cc"/>
      <stop offset=".16" stop-color="#a080d9"/>
      <stop offset=".21" stop-color="#bda7e5"/>
      <stop offset=".27" stop-color="#d5c7ee"/>
      <stop offset=".33" stop-color="#e7dff5"/>
      <stop offset=".39" stop-color="#f4f1fa"/>
      <stop offset=".45" stop-color="#fcfbfe"/>
      <stop offset=".53" stop-color="#fff"/>
      <stop offset=".58" stop-color="#efe9f8"/>
      <stop offset=".79" stop-color="#b497e1"/>
      <stop offset=".93" stop-color="#8f64d2"/>
      <stop offset="1" stop-color="#8151cd"/>
      <stop offset="1" stop-color="#8c60d1"/>
      <stop offset="1" stop-color="#a785dc"/>
      <stop offset="1" stop-color="#bfa6e5"/>
      <stop offset="1" stop-color="#d3c2ed"/>
      <stop offset="1" stop-color="#e3d8f4"/>
      <stop offset="1" stop-color="#efeaf8"/>
      <stop offset="1" stop-color="#f8f6fc"/>
      <stop offset="1" stop-color="#fdfdfe"/>
      <stop offset="1" stop-color="#fff"/>
    </linearGradient>
    <linearGradient id="Degradado_sin_nombre_4201" data-name="Degradado sin nombre 420" x1="3585.28" y1="-109.97" x2="3585.46" y2="-10.3" gradientTransform="matrix(1,0,0,1,0,0)" xlink:href="#Degradado_sin_nombre_420"/>
    <linearGradient id="Degradado_sin_nombre_477" data-name="Degradado sin nombre 477" x1="3536.28" y1="95.81" x2="3450.26" y2="245.49" gradientUnits="userSpaceOnUse">
      <stop offset="0" stop-color="#3f00b4"/>
      <stop offset=".02" stop-color="#4a0fb8"/>
      <stop offset=".08" stop-color="#7447c8"/>
      <stop offset=".14" stop-color="#9978d7"/>
      <stop offset=".2" stop-color="#b8a1e3"/>
      <stop offset=".26" stop-color="#d2c3ed"/>
      <stop offset=".33" stop-color="#e5ddf5"/>
      <stop offset=".39" stop-color="#f3f0fa"/>
      <stop offset=".46" stop-color="#fcfbfd"/>
      <stop offset=".53" stop-color="#fff"/>
      <stop offset=".58" stop-color="#efe9f8"/>
      <stop offset=".79" stop-color="#b497e1"/>
      <stop offset=".93" stop-color="#8f64d2"/>
      <stop offset="1" stop-color="#8151cd"/>
      <stop offset="1" stop-color="#8c60d1"/>
      <stop offset="1" stop-color="#a785dc"/>
      <stop offset="1" stop-color="#bfa6e5"/>
      <stop offset="1" stop-color="#d3c2ed"/>
      <stop offset="1" stop-color="#e3d8f4"/>
      <stop offset="1" stop-color="#efeaf8"/>
      <stop offset="1" stop-color="#f8f6fc"/>
      <stop offset="1" stop-color="#fdfdfe"/>
      <stop offset="1" stop-color="#fff"/>
    </linearGradient>
    <linearGradient id="Degradado_sin_nombre_442" data-name="Degradado sin nombre 442" x1="3665.8" y1="483.84" x2="3731.08" y2="483.84" gradientUnits="userSpaceOnUse">
      <stop offset="0" stop-color="#fff"/>
      <stop offset=".27" stop-color="#930da9"/>
      <stop offset=".32" stop-color="#a12eb5"/>
      <stop offset=".45" stop-color="#c481d5"/>
      <stop offset=".49" stop-color="#d19fe1"/>
      <stop offset=".51" stop-color="#c990dc"/>
      <stop offset=".66" stop-color="#871ab8"/>
      <stop offset=".71" stop-color="#983bc2"/>
      <stop offset="1" stop-color="#fff"/>
    </linearGradient>
    <linearGradient id="Degradado_sin_nombre_426" data-name="Degradado sin nombre 426" x1="3635.51" y1="374.96" x2="3635.51" y2="176.9" gradientUnits="userSpaceOnUse">
      <stop offset="0" stop-color="#6568d1"/>
      <stop offset="1" stop-color="#00bde6"/>
    </linearGradient>
    <linearGradient id="Degradado_sin_nombre_4261" data-name="Degradado sin nombre 426" x1="3754.48" y1="379.05" x2="3754.48" y2="180.98" xlink:href="#Degradado_sin_nombre_426"/>
    <linearGradient id="Nueva_muestra_de_degradado_8" data-name="Nueva muestra de degradado 8" x1="4097.12" y1="224.56" x2="4097.12" y2="447.01" gradientUnits="userSpaceOnUse">
      <stop offset=".41" stop-color="#fff"/>
      <stop offset=".57" stop-color="#fdfcfe"/>
      <stop offset=".65" stop-color="#f7f5fc"/>
      <stop offset=".71" stop-color="#ede7f8"/>
      <stop offset=".77" stop-color="#dfd5f2"/>
      <stop offset=".82" stop-color="#cdbceb"/>
      <stop offset=".86" stop-color="#b69ee2"/>
      <stop offset=".9" stop-color="#9b7ad8"/>
      <stop offset=".94" stop-color="#7c51cb"/>
      <stop offset=".98" stop-color="#5923be"/>
      <stop offset="1" stop-color="#3f00b4"/>
    </linearGradient>
    <linearGradient id="linear-gradient" x1="3772.09" y1="-400.63" x2="3901.93" y2="-400.63" gradientUnits="userSpaceOnUse">
      <stop offset="0" stop-color="#89630d"/>
      <stop offset=".5" stop-color="#ffed00"/>
      <stop offset="1" stop-color="#774e0f"/>
    </linearGradient>
    <linearGradient id="linear-gradient1" x1="3970.4" y1="-302.25" x2="3970.4" y2="-499" gradientUnits="userSpaceOnUse">
      <stop offset="0" stop-color="#89630d"/>
      <stop offset=".5" stop-color="#ffed00"/>
      <stop offset="1" stop-color="#774e0f"/>
    </linearGradient>
    <linearGradient id="Degradado_sin_nombre_449" data-name="Degradado sin nombre 449" x1="3486.03" y1="206.16" x2="3486.03" y2="276.15" gradientUnits="userSpaceOnUse">
      <stop offset="0" stop-color="#000"/>
      <stop offset=".12" stop-color="#040404"/>
      <stop offset=".24" stop-color="#111"/>
      <stop offset=".37" stop-color="#262626"/>
      <stop offset=".5" stop-color="#444"/>
      <stop offset=".63" stop-color="#6a6a6a"/>
      <stop offset=".77" stop-color="#9a9a9a"/>
      <stop offset=".9" stop-color="#d0d0d0"/>
      <stop offset="1" stop-color="#fff"/>
    </linearGradient>
    <mask id="mask" x="3382.83" y="199.09" width="206.4" height="88.67" maskUnits="userSpaceOnUse">
      <ellipse class="st13" cx="3486.03" cy="243.42" rx="103.2" ry="44.34"/>
    </mask>
    <linearGradient id="linear-gradient2" x1="82.75" y1="400.89" x2="323.77" y2="400.89" xlink:href="#linear-gradient"/>
    <linearGradient id="linear-gradient3" x1="323.77" y1="400.89" x2="517.25" y2="400.89" xlink:href="#linear-gradient"/>
  </defs>
  <g class="st17">
    <g id="Layer_1">
      <g class="st20">
        <path d="M2632.91,103.69c-2.8,0-5.4,1.19-6.65,3.31.4-2.86,1.09-7.17,2.87-8.41h-6.86c1.79,1.24,2.47,5.56,2.87,8.42-1.25-2.12-3.86-3.31-6.66-3.31-3.99,0-7.22,3.23-7.22,7.22,0,4.56,3.46,7.8,7.79,11.79,5.39,4.97,6.64,7.87,6.64,7.87h.01s1.25-2.89,6.64-7.87c4.33-3.99,7.79-7.23,7.79-11.79,0-3.99-3.23-7.22-7.22-7.22Z"/>
        <path d="M2619.87,151.52h12.04s2.11-4.91,2.11-4.91c.52-1.21.78-2.11.78-2.71,0-.47-.23-.89-.68-1.25-.45-.36-1.43-.59-2.92-.7v-.85s9.79,0,9.79,0v.85c-1.3.23-2.14.53-2.52.89-.78.73-1.64,2.22-2.59,4.47l-10.94,25.59h-.8s-10.82-25.87-10.82-25.87c-.87-2.08-1.66-3.43-2.37-4.05-.71-.62-1.7-.97-2.97-1.04v-.85s12.27,0,12.27,0v.85c-1.24.06-2.08.27-2.51.62-.44.35-.65.78-.65,1.28,0,.67.31,1.73.92,3.19l1.88,4.47ZM2620.51,153.22l5.27,12.57,5.41-12.57h-10.69Z"/>
      </g>
      <polygon class="st16" points="3705.74 -113.16 3772.09 -7.9 3749.49 -7.9 3689.02 -103.59 3705.74 -113.16"/>
      <polygon class="st9" points="3821.57 238.58 3758.16 138.02 3744.92 145.6 3803.69 238.58 3821.57 238.58"/>
      <polygon class="st14" points="3610.2 -113.16 3543.84 -7.9 3566.45 -7.9 3626.92 -103.59 3610.2 -113.16"/>
      <polygon class="st4" points="3453.05 220.43 3516.45 119.87 3529.7 127.45 3470.93 220.43 3453.05 220.43"/>
      <rect class="st7" x="3663.31" y="474.84" width="67.84" height="18"/>
      <rect class="st15" x="3625.95" y="234.5" width="19.11" height="82.36"/>
      <rect class="st10" x="3744.92" y="238.58" width="19.11" height="82.36"/>
      <path class="st8" d="M4102.46,428.22v-199.62h37.54c7.02,0,13.82,1.38,20.23,4.09,9.29,3.93,17.2,10.44,22.86,18.82,5.81,8.6,8.88,18.64,8.88,29.06,0,7.01-1.37,13.82-4.09,20.23-3.93,9.29-10.44,17.19-18.82,22.86-8.59,5.81-18.63,8.88-29.04,8.88h-15.77v-14h15.75c5.13,0,10.1-1,14.78-2.98,6.79-2.87,12.57-7.63,16.71-13.76,4.24-6.28,6.48-13.62,6.48-21.22,0-5.13-1-10.1-2.98-14.78-2.87-6.79-7.63-12.57-13.76-16.71-6.28-4.24-13.62-6.48-21.22-6.48h-22.43v185.62h-15.11ZM4076.66,428.22v-185.62h-22.42c-7.6,0-14.94,2.24-21.22,6.48-6.14,4.14-10.9,9.92-13.77,16.71-1.98,4.68-2.98,9.65-2.98,14.78,0,7.61,2.24,14.94,6.48,21.22,4.14,6.14,9.92,10.9,16.71,13.77,4.68,1.98,9.65,2.98,14.78,2.98h15.99v14h-15.99c-10.43,0-20.47-3.07-29.06-8.88-8.38-5.66-14.89-13.57-18.82-22.86-2.71-6.41-4.09-13.22-4.09-20.23,0-10.42,3.07-20.47,8.88-29.06,5.66-8.38,13.57-14.89,22.86-18.82,6.41-2.71,13.21-4.09,20.22-4.09h37.55v14h-.12l.07,2.12.02.33c.02.22.03.44.03.67v182.51h-15.11Z"/>
      <g>
        <path class="st23" d="M3882.81-502.44h-20.42c-7.43,0-14.55,1.51-21.01,4.24-9.7,4.1-17.92,10.93-23.74,19.54-5.82,8.6-9.23,19.03-9.22,30.18,0,7.43,1.51,14.55,4.24,21.01,4.1,9.7,10.93,17.92,19.54,23.74,1.4.95,2.86,1.83,4.36,2.64l-64.47,102.26h22.61l60.4-95.57h27.71v95.57h19.11v-203.62h-19.11ZM3880.14-412.39v-.11h-17.75c-4.99,0-9.7-1.01-14-2.82-6.44-2.72-11.95-7.3-15.83-13.04-3.88-5.75-6.13-12.62-6.14-20.1,0-4.99,1.01-9.7,2.82-14,2.72-6.44,7.3-11.95,13.04-15.83,5.75-3.88,12.62-6.13,20.1-6.14h20.42v72.05h-2.67Z"/>
        <polygon class="st5" points="4038.46 -298.82 4026.41 -317.95 3921.45 -318.12 3921.45 -502.44 3902.33 -502.44 3902.33 -298.82 3921.45 -298.82 3921.45 -298.88 4038.46 -298.82"/>
      </g>
      <path class="st2" d="M3585.35-136.38c-4.23-6.27-6.48-13.59-6.48-21.18,0-5.12,1-10.08,2.98-14.74,2.72-6.42,7.15-11.92,12.83-16-.14.09-.29.17-.44.26-6.14,4.01-10.9,9.6-13.77,16.18-1.98,4.53-2.98,9.34-2.98,14.3,0,7.36,2.24,14.46,6.48,20.54,2.8,4.01,6.36,7.4,10.46,10.04-3.52-2.57-6.6-5.74-9.09-9.41Z"/>
      <path class="st1" d="M3594.45-206.91c-9.7,4.09-17.92,10.9-23.74,19.48-5.82,8.57-9.23,18.97-9.22,30.08,0,7.4,1.51,14.5,4.24,20.94,2.76,6.51,6.76,12.34,11.71,17.23,2.3,2.23,4.79,4.25,7.46,6.05,5.99,4.04,12.88,6.91,20.27,8.28-6.69-1.48-12.93-4.2-18.42-7.9-2.81-1.9-5.43-4.05-7.83-6.43-5.12-4.97-9.25-10.94-12.09-17.61-2.73-6.44-4.25-13.54-4.24-20.94,0-11.11,3.4-21.51,9.22-30.08,5.82-8.58,14.04-15.39,23.74-19.48.75-.32,1.5-.61,2.27-.89-1.14.39-2.26.81-3.36,1.27Z"/>
      <path class="st2" d="M3636.25-162.19c4.23-6.27,6.48-13.59,6.48-21.18,0-5.12-1-10.08-2.98-14.74-2.72-6.42-7.15-11.92-12.83-16,.14.09.29.17.44.26,6.14,4.01,10.9,9.6,13.77,16.18,1.98,4.53,2.98,9.34,2.98,14.3,0,7.36-2.24,14.46-6.48,20.54-2.8,4.01-6.36,7.4-10.46,10.04,3.52-2.57,6.6-5.74,9.09-9.41Z"/>
      <path class="st1" d="M4190.43-215.21c9.7,4.09,17.92,10.9,23.74,19.48,5.82,8.57,9.23,18.97,9.22,30.08,0,7.4-1.51,14.5-4.24,20.94-2.76,6.51-6.76,12.34-11.71,17.23-2.3,2.23-4.79,4.25-7.46,6.05-5.99,4.04-12.88,6.91-20.27,8.28,6.69-1.48,12.93-4.2,18.42-7.9,2.81-1.9,5.43-4.05,7.83-6.43,5.12-4.97,9.25-10.94,12.09-17.61,2.73-6.44,4.25-13.54,4.24-20.94,0-11.11-3.4-21.51-9.22-30.08-5.82-8.58-14.04-15.39-23.74-19.48-.75-.32-1.5-.61-2.27-.89,1.14.39,2.26.81,3.36,1.27Z"/>
      <g class="st11">
        <path class="st12" d="M3577.49,253.92c-3.97,1.87-8.32,3.61-13,5.21-.19-.51-.38-1.01-.59-1.51-2.87-6.79-7.63-12.57-13.76-16.71-6.28-4.24-13.62-6.48-21.22-6.48h-22.43v35.47c-4.94.33-9.98.54-15.11.63v-50.1h37.54c7.02,0,13.82,1.38,20.23,4.09,9.29,3.93,17.2,10.44,22.86,18.82,2.25,3.33,4.08,6.88,5.49,10.58ZM3422.92,224.52c-9.29,3.93-17.19,10.44-22.86,18.82-2.25,3.33-4.08,6.88-5.49,10.58,3.97,1.87,8.32,3.61,13,5.21.19-.51.38-1.01.59-1.51,2.87-6.79,7.63-12.57,13.77-16.71,6.28-4.23,13.62-6.48,21.22-6.48h22.42v35.47c4.94.33,9.98.54,15.11.63v-32.99c0-.23-.02-.45-.03-.67l-.02-.33-.07-2.12h.12v-14h-37.55c-7.01,0-13.81,1.38-20.22,4.09Z"/>
      </g>
      <g>
        <g>
          <path class="st3" d="M566.67,812.74c0,20.58-12.77,37.26-28.53,37.26H61.86c-15.75,0-28.53-16.68-28.53-37.26V87.26c0-20.58,12.78-37.26,28.53-37.26h476.28c15.76,0,28.53,16.68,28.53,37.26v725.48Z"/>
          <g>
            <path d="M109.71,89.65c-14.98-13.83-18.47-21.87-18.47-21.87h-.02s-3.47,8.04-18.47,21.87c-12.02,11.1-21.64,20.1-21.64,32.77,0,11.08,8.99,20.06,20.05,20.06,7.79,0,15.04-3.32,18.51-9.2-1.11,7.94-3.02,19.93-7.98,23.38h19.07c-4.96-3.45-6.87-15.45-7.98-23.39,3.47,5.89,10.72,9.21,18.51,9.21,11.08,0,20.06-8.98,20.06-20.06,0-12.68-9.62-21.67-21.64-32.77Z"/>
            <polygon class="st6" points="478.01 787.72 513.52 743.33 548.89 787.83 513.38 832.22 478.01 787.72"/>
          </g>
        </g>
        <g>
          <g>
            <text class="st18" transform="translate(77.78 603.08) scale(.84 1)"><tspan x="0" y="0">Rummy </tspan><tspan class="st21" x="320.87" y="0">Ludo</tspan></text>
            <text class="st22" transform="translate(78.86 636.38)"><tspan x="0" y="0">Khelo Aur Jeeto!</tspan></text>
          </g>
          <g>
            <g>
              <path class="st0" d="M281.72,426.45v-58.07c0-14.91.42-31.98,1.26-51.21s1.88-34.36,3.14-45.38l37.66-6.58v-1.88h-103.1c-19.56,0-35.18,4.67-46.84,14-11.66,9.33-19.75,19.98-24.24,31.95s-6.75,22.27-6.75,30.91c0,11.9,2.25,22.52,6.75,31.85,4.5,9.33,10.38,16.76,17.65,22.27,7.27,5.51,14.67,8.77,22.2,9.77v.75c-7.11,3.38-13.02,7.89-17.73,13.53-3.66,4.38-7.85,10.55-12.55,18.51-4.71,7.96-10.93,18.82-18.67,32.6-7.74,13.78-13.97,24.56-18.67,32.32-4.71,7.77-9.05,14.09-13.02,18.98-8.79,10.52-17.47,15.79-26.05,15.79v1.88h27.3c15.27,0,27.41-5.51,36.41-16.54,3.56-4.26,7.09-9.3,10.59-15.13,3.5-5.83,9.05-15.38,16.63-28.66,7.58-13.28,13.97-24.24,19.14-32.89,5.18-8.64,9.28-14.78,12.32-18.42,4.5-5.39,8.6-8.99,12.32-10.81,3.71-1.82,9.18-2.72,16.4-2.72,6.59,0,11.72.44,15.38,1.32.63,6.77.94,14.28.94,22.55v34.77c0,14.66-1.31,34.01-3.92,58.07l-39.07,6.58v1.88h116.59v-1.88l-36.88-6.58c-1.57-12.65-2.82-30.44-3.77-53.37-.94-22.93-1.41-39.65-1.41-50.17ZM277.8,270.66v260.46h-11.3v-260.46h11.3ZM250.49,340.57v30.82c0,10.9-.31,21.05-.94,30.44-4.08.75-9.99,1.13-17.73,1.13-13.39,0-24.19-2.76-32.4-8.27-8.21-5.51-14.07-12.68-17.57-21.52s-5.26-18.51-5.26-29.03,1.7-19.98,5.1-28.75c3.4-8.77,7.79-16.19,13.18-22.27,5.39-6.08,11.4-10.77,18.05-14.09,6.64-3.32,13.16-4.98,19.54-4.98s10.83.5,14.28,1.5c.94,7.27,1.8,17.66,2.59,31.19.78,13.53,1.18,24.81,1.18,33.83ZM234.8,267.47v1.88c-14.33.38-26.34,4.54-36.01,12.5-9.68,7.96-16.71,17.7-21.11,29.22s-6.59,22.93-6.59,34.2c0,25.06,9.1,43.16,27.3,54.31l-.94.75c-10.67-3.26-19.48-10.21-26.44-20.86-6.96-10.65-10.44-23.36-10.44-38.15,0-11.53,1.88-21.96,5.65-31.29,3.77-9.33,8.87-17.13,15.3-23.4,6.43-6.26,13.63-11.02,21.58-14.28s15.95-4.89,24.01-4.89h7.69ZM194,433.78l-34.05,59.2c-8.16,13.91-15.43,23.83-21.81,29.79-6.38,5.95-13.91,8.99-22.6,9.11v-1.88c8.26-2.88,18.88-15.6,31.85-38.15l27.3-46.98c5.86-10.27,11.35-18.04,16.48-23.3s11.4-8.77,18.83-10.52l.63,1.5c-5.86,4.51-11.4,11.59-16.63,21.24Z"/>
              <path class="st19" d="M324.09,265.21v-1.88h118.63v1.88l-38.92,6.58c-1.36,12.15-2.51,28.53-3.45,49.14-.94,20.61-1.41,38.62-1.41,54.03v80.81c0,19.42.84,39.65,2.51,60.7,17.89,6.77,36.35,10.15,55.39,10.15,9.21,0,17.68-.63,25.42-1.88,7.74-1.25,13.18-2.44,16.32-3.57l16.32-51.3h2.35l-7.38,68.59h-186.11v-1.88l37.5-6.58c1.26-6.01,2.33-16.72,3.22-32.13.89-15.41,1.6-31.32,2.12-47.73.52-16.41.78-28,.78-34.77v-47.36c0-10.4-.21-22.33-.63-35.8-.42-13.47-.92-25.28-1.49-35.42-.58-10.15-1.33-18.48-2.28-24.99l-38.92-6.58ZM371.63,270.29v260.83h10.98v-260.83h-10.98Z"/>
            </g>
            <g>
              <g>
                <g>
                  <ellipse cx="303.11" cy="373.87" rx="1.38" ry="4.19" transform="translate(-34.78 31.11) rotate(-5.56)"/>
                  <ellipse cx="298.48" cy="359.47" rx="1.18" ry="3.84" transform="translate(-33.42 30.61) rotate(-5.56)"/>
                  <ellipse cx="295.16" cy="370.84" rx="1.07" ry="3.73" transform="translate(-34.54 30.35) rotate(-5.56)"/>
                  <ellipse cx="299.31" cy="385.29" rx="1.18" ry="4.06" transform="translate(-35.92 30.81) rotate(-5.56)"/>
                </g>
                <g>
                  <ellipse cx="337.7" cy="381.1" rx="4.32" ry="2.42" transform="translate(-115.1 148.19) rotate(-21.24)"/>
                  <ellipse cx="330.98" cy="394.13" rx="4.32" ry="2.42" transform="translate(-125.12 155.68) rotate(-22.38)"/>
                  <ellipse cx="325.83" cy="388.07" rx="4.32" ry="2.42" transform="translate(-123.2 153.26) rotate(-22.38)"/>
                  <ellipse cx="320.33" cy="381.94" rx="4.32" ry="2.42" transform="translate(-121.28 150.7) rotate(-22.38)"/>
                  <ellipse cx="313.63" cy="394.97" rx="4.32" ry="2.42" transform="translate(-126.74 149.13) rotate(-22.38)"/>
                </g>
                <g>
                  <ellipse cx="312.68" cy="350.22" rx="3.17" ry="4" transform="translate(-141.4 469.54) rotate(-62.96)"/>
                  <ellipse cx="321.14" cy="349.18" rx="3.17" ry="4" transform="translate(-135.86 476.51) rotate(-62.96)"/>
                  <ellipse cx="329.61" cy="348.14" rx="3.17" ry="4" transform="translate(-130.32 483.47) rotate(-62.96)"/>
                  <ellipse cx="318.86" cy="366.2" rx="3.17" ry="4" transform="translate(-152.27 483.75) rotate(-62.96)"/>
                  <ellipse cx="327.32" cy="365.16" rx="3.17" ry="4" transform="translate(-146.72 490.72) rotate(-62.96)"/>
                  <ellipse cx="335.78" cy="364.12" rx="3.17" ry="4" transform="translate(-141.18 497.69) rotate(-62.96)"/>
                </g>
                <path class="st21" d="M345.57,393.87l4.88-14.61.03-.07c.95-2.85,1.34-5.85,1.16-8.82-.12-1.94-.61-3.68-1.16-5.53-1.75-5.81-5.69-18.89-5.69-18.89-.55-1.78-1.53-3.41-2.83-4.72-2.39-2.41-5.67-3.62-9.03-3.35l-29.77,2.87c-2.98.29-5.51,2.28-6.51,5.12l-6.93,20.55c-.49,1.45-.51,3.01-.06,4.48,0,0,8.26,27.01,8.28,27.06,1.1,3.44,4.43,5.66,8.02,5.34l31.3-2.82c3.82-.34,7.09-2.94,8.32-6.61ZM304.95,343.09l28.06-2.7c2.67-.26,5.29.7,7.19,2.61,1.02,1.03,1.78,2.3,2.22,3.7l6.23,20.15c.27.88.23,1.85-.19,2.67-.54,1.05-1.54,1.73-2.69,1.83l-29.64,2.82c-3.45.33-6.65-1.83-7.66-5.18l-6.49-21.45c-.3-1-.14-2.07.43-2.94.58-.87,1.5-1.42,2.53-1.52ZM299.78,395.51l-7.52-24.58c-.45-1.46-.43-3.03.06-4.48l5.89-17.46c.26-.78,1.36-.78,1.61,0,0,0,0,.01,0,.02l4.38,14.48,2.94,9.71c.56,1.86.54,3.85-.07,5.69v.03s-3.9,11.85-3.9,11.85l-1.56,4.75c-.3.9-1.56.89-1.84-.02ZM337.03,397.99l-30.44,2.75c-.83.07-1.61-.21-2.2-.8-.75-.75-1-1.84-.67-2.85l4.63-14.09c1.15-3.49,4.23-5.96,7.85-6.31l25.45-2.42,2.93-.28c1.02-.1,1.98.25,2.7.98.92.93,1.23,2.27.82,3.5l-4.88,14.61c-.91,2.73-3.34,4.66-6.19,4.92Z"/>
              </g>
              <g>
                <g>
                  <ellipse cx="328.06" cy="451.12" rx="1.39" ry="4.16" transform="translate(-151.4 736.18) rotate(-84.71)"/>
                  <ellipse cx="313.16" cy="453" rx="1.19" ry="3.81" transform="translate(-166.78 723.06) rotate(-84.71)"/>
                  <ellipse cx="323.61" cy="458.43" rx="1.08" ry="3.7" transform="translate(-162.7 738.41) rotate(-84.71)"/>
                  <ellipse cx="338.46" cy="457.04" rx="1.19" ry="4.03" transform="translate(-147.83 751.93) rotate(-84.71)"/>
                </g>
                <g>
                  <ellipse cx="341.6" cy="418.23" rx="2.4" ry="4.35" transform="translate(-66.93 65.09) rotate(-9.92)"/>
                  <ellipse cx="353.03" cy="427.34" rx="2.4" ry="4.35" transform="translate(-75.23 75.43) rotate(-11.03)"/>
                  <ellipse cx="346.17" cy="431.3" rx="2.4" ry="4.35" transform="translate(-76.12 74.19) rotate(-11.03)"/>
                  <ellipse cx="339.16" cy="435.59" rx="2.4" ry="4.35" transform="translate(-77.07 72.93) rotate(-11.03)"/>
                  <ellipse cx="350.58" cy="444.68" rx="2.4" ry="4.35" transform="translate(-78.6 75.28) rotate(-11.03)"/>
                </g>
                <g>
                  <ellipse cx="306.83" cy="437.19" rx="4.01" ry="3.15" transform="translate(-227.21 427.73) rotate(-53.92)"/>
                  <ellipse cx="307.41" cy="428.62" rx="4.01" ry="3.15" transform="translate(-220.04 424.68) rotate(-53.92)"/>
                  <ellipse cx="307.99" cy="420.04" rx="4.01" ry="3.15" transform="translate(-212.87 421.62) rotate(-53.92)"/>
                  <ellipse cx="323.55" cy="434.09" rx="4.01" ry="3.15" transform="translate(-217.82 439.97) rotate(-53.92)"/>
                  <ellipse cx="324.13" cy="425.51" rx="4.01" ry="3.15" transform="translate(-210.65 436.92) rotate(-53.92)"/>
                  <ellipse cx="324.71" cy="416.93" rx="4.01" ry="3.15" transform="translate(-203.48 433.86) rotate(-53.92)"/>
                </g>
                <path class="st21" d="M355.53,412.84l-13.31-7.59-.07-.04c-2.6-1.48-5.45-2.43-8.37-2.81-1.91-.25-3.7-.09-5.6.11-5.98.64-19.46,2.08-19.46,2.08-1.83.21-3.61.87-5.13,1.91-2.8,1.91-4.59,4.93-4.96,8.31l-2.82,30.03c-.28,3,1.19,5.89,3.76,7.41l18.71,10.73c1.32.76,2.84,1.07,4.35.91,0,0,27.86-3.1,27.91-3.11,3.56-.44,6.35-3.32,6.71-6.94l3.14-31.53c.39-3.85-1.53-7.57-4.87-9.48ZM298.42,443.51l2.65-28.3c.25-2.69,1.68-5.11,3.9-6.63,1.19-.81,2.58-1.33,4.02-1.5l20.8-2.37c.91-.1,1.85.12,2.57.69.92.73,1.39,1.85,1.28,3.01l-2.83,29.88c-.33,3.48-3.04,6.24-6.48,6.61l-22.11,2.39c-1.03.11-2.05-.25-2.78-.98-.74-.73-1.1-1.76-1.01-2.8ZM348.5,458.5l-25.36,2.82c-1.51.17-3.03-.15-4.35-.91l-15.89-9.12c-.72-.41-.5-1.49.31-1.6,0,0,.01,0,.02,0l14.93-1.61,10.01-1.08c1.92-.21,3.85.19,5.53,1.14l.03.02,10.8,6.08,4.34,2.44c.82.46.57,1.71-.36,1.82ZM357.93,422.07l-3.05,30.67c-.08.84-.51,1.56-1.19,2.03-.87.6-1.99.64-2.9.13l-12.85-7.24c-3.18-1.79-5.01-5.31-4.67-8.97l2.43-25.66.28-2.96c.1-1.03.61-1.91,1.46-2.49,1.08-.74,2.44-.79,3.57-.15l13.31,7.59c2.49,1.42,3.91,4.19,3.62,7.05Z"/>
              </g>
            </g>
          </g>
        </g>
      </g>
    </g>
  </g>
</svg>